<svg width="301" height="71" viewBox="0 0 301 71" fill="none" xmlns="http://www.w3.org/2000/svg">
<g filter="url(#filter0_d_5611_2)">
<path d="M289 33.0479C289 19.2143 277.302 8 262.872 8H34.1281C19.6979 8 8 19.2143 8 33.0479C8 46.8815 19.6979 58.0959 34.1281 58.0959H262.872C277.302 58.0959 289 46.8815 289 33.0479Z" fill="white"/>
</g>
<path d="M39.7584 28.88V40H37.9344V28.88H39.7584ZM45.7014 35.584C45.7014 34.6773 45.8827 33.8827 46.2454 33.2C46.6187 32.5067 47.1307 31.9733 47.7814 31.6C48.432 31.2267 49.1787 31.04 50.0214 31.04C51.088 31.04 51.968 31.296 52.6614 31.808C53.3654 32.3093 53.84 33.0293 54.0854 33.968H52.1174C51.9574 33.5307 51.7014 33.1893 51.3494 32.944C50.9974 32.6987 50.5547 32.576 50.0214 32.576C49.2747 32.576 48.6774 32.8427 48.2294 33.376C47.792 33.8987 47.5734 34.6347 47.5734 35.584C47.5734 36.5333 47.792 37.2747 48.2294 37.808C48.6774 38.3413 49.2747 38.608 50.0214 38.608C51.0774 38.608 51.776 38.144 52.1174 37.216H54.0854C53.8294 38.112 53.3494 38.8267 52.6454 39.36C51.9414 39.8827 51.0667 40.144 50.0214 40.144C49.1787 40.144 48.432 39.9573 47.7814 39.584C47.1307 39.2 46.6187 38.6667 46.2454 37.984C45.8827 37.2907 45.7014 36.4907 45.7014 35.584ZM55.2951 35.552C55.2951 34.6667 55.4765 33.8827 55.8391 33.2C56.2125 32.5173 56.7138 31.9893 57.3431 31.616C57.9831 31.232 58.6871 31.04 59.4551 31.04C60.1485 31.04 60.7511 31.1787 61.2631 31.456C61.7858 31.7227 62.2018 32.0587 62.5111 32.464V31.184H64.3511V40H62.5111V38.688C62.2018 39.104 61.7805 39.4507 61.2471 39.728C60.7138 40.0053 60.1058 40.144 59.4231 40.144C58.6658 40.144 57.9725 39.952 57.3431 39.568C56.7138 39.1733 56.2125 38.6293 55.8391 37.936C55.4765 37.232 55.2951 36.4373 55.2951 35.552ZM62.5111 35.584C62.5111 34.976 62.3831 34.448 62.1271 34C61.8818 33.552 61.5565 33.2107 61.1511 32.976C60.7458 32.7413 60.3085 32.624 59.8391 32.624C59.3698 32.624 58.9325 32.7413 58.5271 32.976C58.1218 33.2 57.7911 33.536 57.5351 33.984C57.2898 34.4213 57.1671 34.944 57.1671 35.552C57.1671 36.16 57.2898 36.6933 57.5351 37.152C57.7911 37.6107 58.1218 37.9627 58.5271 38.208C58.9431 38.4427 59.3805 38.56 59.8391 38.56C60.3085 38.56 60.7458 38.4427 61.1511 38.208C61.5565 37.9733 61.8818 37.632 62.1271 37.184C62.3831 36.7253 62.5111 36.192 62.5111 35.584ZM71.1949 31.04C71.8882 31.04 72.5069 31.184 73.0509 31.472C73.6055 31.76 74.0375 32.1867 74.3469 32.752C74.6562 33.3173 74.8109 34 74.8109 34.8V40H73.0029V35.072C73.0029 34.2827 72.8055 33.68 72.4109 33.264C72.0162 32.8373 71.4775 32.624 70.7949 32.624C70.1122 32.624 69.5682 32.8373 69.1629 33.264C68.7682 33.68 68.5709 34.2827 68.5709 35.072V40H66.7469V31.184H68.5709V32.192C68.8695 31.8293 69.2482 31.5467 69.7069 31.344C70.1762 31.1413 70.6722 31.04 71.1949 31.04ZM83.4218 32.672V37.552C83.4218 37.8827 83.4964 38.1227 83.6458 38.272C83.8058 38.4107 84.0724 38.48 84.4458 38.48H85.5658V40H84.1258C83.3044 40 82.6751 39.808 82.2378 39.424C81.8004 39.04 81.5818 38.416 81.5818 37.552V32.672H80.5418V31.184H81.5818V28.992H83.4218V31.184H85.5658V32.672H83.4218ZM86.6389 35.552C86.6389 34.6667 86.8202 33.8827 87.1829 33.2C87.5562 32.5173 88.0575 31.9893 88.6869 31.616C89.3269 31.232 90.0309 31.04 90.7989 31.04C91.4922 31.04 92.0949 31.1787 92.6069 31.456C93.1295 31.7227 93.5455 32.0587 93.8549 32.464V31.184H95.6949V40H93.8549V38.688C93.5455 39.104 93.1242 39.4507 92.5909 39.728C92.0575 40.0053 91.4495 40.144 90.7669 40.144C90.0095 40.144 89.3162 39.952 88.6869 39.568C88.0575 39.1733 87.5562 38.6293 87.1829 37.936C86.8202 37.232 86.6389 36.4373 86.6389 35.552ZM93.8549 35.584C93.8549 34.976 93.7269 34.448 93.4709 34C93.2255 33.552 92.9002 33.2107 92.4949 32.976C92.0895 32.7413 91.6522 32.624 91.1829 32.624C90.7135 32.624 90.2762 32.7413 89.8709 32.976C89.4655 33.2 89.1349 33.536 88.8789 33.984C88.6335 34.4213 88.5109 34.944 88.5109 35.552C88.5109 36.16 88.6335 36.6933 88.8789 37.152C89.1349 37.6107 89.4655 37.9627 89.8709 38.208C90.2869 38.4427 90.7242 38.56 91.1829 38.56C91.6522 38.56 92.0895 38.4427 92.4949 38.208C92.9002 37.9733 93.2255 37.632 93.4709 37.184C93.7269 36.7253 93.8549 36.192 93.8549 35.584ZM101.579 35.6L105.643 40H103.179L99.9146 36.208V40H98.0906V28.16H99.9146V35.04L103.115 31.184H105.643L101.579 35.6ZM115.03 35.376C115.03 35.7067 115.009 36.0053 114.966 36.272H108.23C108.283 36.976 108.545 37.5413 109.014 37.968C109.483 38.3947 110.059 38.608 110.742 38.608C111.723 38.608 112.417 38.1973 112.822 37.376H114.79C114.523 38.1867 114.038 38.8533 113.334 39.376C112.641 39.888 111.777 40.144 110.742 40.144C109.899 40.144 109.142 39.9573 108.47 39.584C107.809 39.2 107.286 38.6667 106.902 37.984C106.529 37.2907 106.342 36.4907 106.342 35.584C106.342 34.6773 106.523 33.8827 106.886 33.2C107.259 32.5067 107.777 31.9733 108.438 31.6C109.11 31.2267 109.878 31.04 110.742 31.04C111.574 31.04 112.315 31.2213 112.966 31.584C113.617 31.9467 114.123 32.4587 114.486 33.12C114.849 33.7707 115.03 34.5227 115.03 35.376ZM113.126 34.8C113.115 34.128 112.875 33.5893 112.406 33.184C111.937 32.7787 111.355 32.576 110.662 32.576C110.033 32.576 109.494 32.7787 109.046 33.184C108.598 33.5787 108.331 34.1173 108.246 34.8H113.126ZM120.373 35.584C120.373 34.6773 120.555 33.8827 120.917 33.2C121.291 32.5067 121.803 31.9733 122.453 31.6C123.104 31.2267 123.851 31.04 124.693 31.04C125.76 31.04 126.64 31.296 127.333 31.808C128.037 32.3093 128.512 33.0293 128.757 33.968H126.789C126.629 33.5307 126.373 33.1893 126.021 32.944C125.669 32.6987 125.227 32.576 124.693 32.576C123.947 32.576 123.349 32.8427 122.901 33.376C122.464 33.8987 122.245 34.6347 122.245 35.584C122.245 36.5333 122.464 37.2747 122.901 37.808C123.349 38.3413 123.947 38.608 124.693 38.608C125.749 38.608 126.448 38.144 126.789 37.216H128.757C128.501 38.112 128.021 38.8267 127.317 39.36C126.613 39.8827 125.739 40.144 124.693 40.144C123.851 40.144 123.104 39.9573 122.453 39.584C121.803 39.2 121.291 38.6667 120.917 37.984C120.555 37.2907 120.373 36.4907 120.373 35.584ZM129.967 35.552C129.967 34.6667 130.148 33.8827 130.511 33.2C130.884 32.5173 131.386 31.9893 132.015 31.616C132.655 31.232 133.359 31.04 134.127 31.04C134.82 31.04 135.423 31.1787 135.935 31.456C136.458 31.7227 136.874 32.0587 137.183 32.464V31.184H139.023V40H137.183V38.688C136.874 39.104 136.452 39.4507 135.919 39.728C135.386 40.0053 134.778 40.144 134.095 40.144C133.338 40.144 132.644 39.952 132.015 39.568C131.386 39.1733 130.884 38.6293 130.511 37.936C130.148 37.232 129.967 36.4373 129.967 35.552ZM137.183 35.584C137.183 34.976 137.055 34.448 136.799 34C136.554 33.552 136.228 33.2107 135.823 32.976C135.418 32.7413 134.98 32.624 134.511 32.624C134.042 32.624 133.604 32.7413 133.199 32.976C132.794 33.2 132.463 33.536 132.207 33.984C131.962 34.4213 131.839 34.944 131.839 35.552C131.839 36.16 131.962 36.6933 132.207 37.152C132.463 37.6107 132.794 37.9627 133.199 38.208C133.615 38.4427 134.052 38.56 134.511 38.56C134.98 38.56 135.418 38.4427 135.823 38.208C136.228 37.9733 136.554 37.632 136.799 37.184C137.055 36.7253 137.183 36.192 137.183 35.584ZM143.243 32.464C143.509 32.016 143.861 31.6693 144.299 31.424C144.747 31.168 145.275 31.04 145.883 31.04V32.928H145.419C144.704 32.928 144.16 33.1093 143.787 33.472C143.424 33.8347 143.243 34.464 143.243 35.36V40H141.419V31.184H143.243V32.464ZM155.639 35.376C155.639 35.7067 155.618 36.0053 155.575 36.272H148.839C148.893 36.976 149.154 37.5413 149.623 37.968C150.093 38.3947 150.669 38.608 151.351 38.608C152.333 38.608 153.026 38.1973 153.431 37.376H155.399C155.133 38.1867 154.647 38.8533 153.943 39.376C153.25 39.888 152.386 40.144 151.351 40.144C150.509 40.144 149.751 39.9573 149.079 39.584C148.418 39.2 147.895 38.6667 147.511 37.984C147.138 37.2907 146.951 36.4907 146.951 35.584C146.951 34.6773 147.133 33.8827 147.495 33.2C147.869 32.5067 148.386 31.9733 149.047 31.6C149.719 31.2267 150.487 31.04 151.351 31.04C152.183 31.04 152.925 31.2213 153.575 31.584C154.226 31.9467 154.733 32.4587 155.095 33.12C155.458 33.7707 155.639 34.5227 155.639 35.376ZM153.735 34.8C153.725 34.128 153.485 33.5893 153.015 33.184C152.546 32.7787 151.965 32.576 151.271 32.576C150.642 32.576 150.103 32.7787 149.655 33.184C149.207 33.5787 148.941 34.1173 148.855 34.8H153.735ZM165.415 40.144C164.583 40.144 163.831 39.9573 163.159 39.584C162.487 39.2 161.959 38.6667 161.575 37.984C161.191 37.2907 160.999 36.4907 160.999 35.584C160.999 34.688 161.196 33.8933 161.591 33.2C161.985 32.5067 162.524 31.9733 163.207 31.6C163.889 31.2267 164.652 31.04 165.495 31.04C166.337 31.04 167.1 31.2267 167.783 31.6C168.465 31.9733 169.004 32.5067 169.399 33.2C169.793 33.8933 169.991 34.688 169.991 35.584C169.991 36.48 169.788 37.2747 169.383 37.968C168.977 38.6613 168.423 39.2 167.719 39.584C167.025 39.9573 166.257 40.144 165.415 40.144ZM165.415 38.56C165.884 38.56 166.321 38.448 166.727 38.224C167.143 38 167.479 37.664 167.735 37.216C167.991 36.768 168.119 36.224 168.119 35.584C168.119 34.944 167.996 34.4053 167.751 33.968C167.505 33.52 167.18 33.184 166.775 32.96C166.369 32.736 165.932 32.624 165.463 32.624C164.993 32.624 164.556 32.736 164.151 32.96C163.756 33.184 163.441 33.52 163.207 33.968C162.972 34.4053 162.855 34.944 162.855 35.584C162.855 36.5333 163.095 37.2693 163.575 37.792C164.065 38.304 164.679 38.56 165.415 38.56ZM175.49 32.672H173.858V40H172.018V32.672H170.978V31.184H172.018V30.56C172.018 29.5467 172.284 28.8107 172.818 28.352C173.362 27.8827 174.21 27.648 175.362 27.648V29.168C174.807 29.168 174.418 29.2747 174.194 29.488C173.97 29.6907 173.858 30.048 173.858 30.56V31.184H175.49V32.672ZM189.199 31.184L183.791 44.144H181.903L183.695 39.856L180.223 31.184H182.255L184.735 37.904L187.311 31.184H189.199ZM194.399 40.144C193.567 40.144 192.815 39.9573 192.143 39.584C191.471 39.2 190.943 38.6667 190.559 37.984C190.175 37.2907 189.983 36.4907 189.983 35.584C189.983 34.688 190.18 33.8933 190.575 33.2C190.97 32.5067 191.508 31.9733 192.191 31.6C192.874 31.2267 193.636 31.04 194.479 31.04C195.322 31.04 196.084 31.2267 196.767 31.6C197.45 31.9733 197.988 32.5067 198.383 33.2C198.778 33.8933 198.975 34.688 198.975 35.584C198.975 36.48 198.772 37.2747 198.367 37.968C197.962 38.6613 197.407 39.2 196.703 39.584C196.01 39.9573 195.242 40.144 194.399 40.144ZM194.399 38.56C194.868 38.56 195.306 38.448 195.711 38.224C196.127 38 196.463 37.664 196.719 37.216C196.975 36.768 197.103 36.224 197.103 35.584C197.103 34.944 196.98 34.4053 196.735 33.968C196.49 33.52 196.164 33.184 195.759 32.96C195.354 32.736 194.916 32.624 194.447 32.624C193.978 32.624 193.54 32.736 193.135 32.96C192.74 33.184 192.426 33.52 192.191 33.968C191.956 34.4053 191.839 34.944 191.839 35.584C191.839 36.5333 192.079 37.2693 192.559 37.792C193.05 38.304 193.663 38.56 194.399 38.56ZM208.762 31.184V40H206.938V38.96C206.65 39.3227 206.271 39.6107 205.802 39.824C205.343 40.0267 204.853 40.128 204.33 40.128C203.637 40.128 203.013 39.984 202.458 39.696C201.914 39.408 201.482 38.9813 201.162 38.416C200.853 37.8507 200.698 37.168 200.698 36.368V31.184H202.506V36.096C202.506 36.8853 202.703 37.4933 203.098 37.92C203.493 38.336 204.031 38.544 204.714 38.544C205.397 38.544 205.935 38.336 206.33 37.92C206.735 37.4933 206.938 36.8853 206.938 36.096V31.184H208.762ZM212.993 32.464C213.259 32.016 213.611 31.6693 214.049 31.424C214.497 31.168 215.025 31.04 215.633 31.04V32.928H215.169C214.454 32.928 213.91 33.1093 213.537 33.472C213.174 33.8347 212.993 34.464 212.993 35.36V40H211.169V31.184H212.993V32.464ZM223.29 32.48C223.599 32.0747 224.02 31.7333 224.554 31.456C225.087 31.1787 225.69 31.04 226.362 31.04C227.13 31.04 227.828 31.232 228.458 31.616C229.098 31.9893 229.599 32.5173 229.962 33.2C230.324 33.8827 230.506 34.6667 230.506 35.552C230.506 36.4373 230.324 37.232 229.962 37.936C229.599 38.6293 229.098 39.1733 228.458 39.568C227.828 39.952 227.13 40.144 226.362 40.144C225.69 40.144 225.092 40.0107 224.57 39.744C224.047 39.4667 223.62 39.1253 223.29 38.72V44.192H221.466V31.184H223.29V32.48ZM228.65 35.552C228.65 34.944 228.522 34.4213 228.266 33.984C228.02 33.536 227.69 33.2 227.274 32.976C226.868 32.7413 226.431 32.624 225.962 32.624C225.503 32.624 225.066 32.7413 224.65 32.976C224.244 33.2107 223.914 33.552 223.658 34C223.412 34.448 223.29 34.976 223.29 35.584C223.29 36.192 223.412 36.7253 223.658 37.184C223.914 37.632 224.244 37.9733 224.65 38.208C225.066 38.4427 225.503 38.56 225.962 38.56C226.431 38.56 226.868 38.4427 227.274 38.208C227.69 37.9627 228.02 37.6107 228.266 37.152C228.522 36.6933 228.65 36.16 228.65 35.552ZM233.237 30.016C232.907 30.016 232.629 29.904 232.405 29.68C232.181 29.456 232.069 29.1787 232.069 28.848C232.069 28.5173 232.181 28.24 232.405 28.016C232.629 27.792 232.907 27.68 233.237 27.68C233.557 27.68 233.829 27.792 234.053 28.016C234.277 28.24 234.389 28.5173 234.389 28.848C234.389 29.1787 234.277 29.456 234.053 29.68C233.829 29.904 233.557 30.016 233.237 30.016ZM234.133 31.184V40H232.309V31.184H234.133ZM238.656 32.672V37.552C238.656 37.8827 238.731 38.1227 238.88 38.272C239.04 38.4107 239.307 38.48 239.68 38.48H240.8V40H239.36C238.539 40 237.909 39.808 237.472 39.424C237.035 39.04 236.816 38.416 236.816 37.552V32.672H235.776V31.184H236.816V28.992H238.656V31.184H240.8V32.672H238.656ZM241.873 35.584C241.873 34.6773 242.055 33.8827 242.417 33.2C242.791 32.5067 243.303 31.9733 243.953 31.6C244.604 31.2267 245.351 31.04 246.193 31.04C247.26 31.04 248.14 31.296 248.833 31.808C249.537 32.3093 250.012 33.0293 250.257 33.968H248.289C248.129 33.5307 247.873 33.1893 247.521 32.944C247.169 32.6987 246.727 32.576 246.193 32.576C245.447 32.576 244.849 32.8427 244.401 33.376C243.964 33.8987 243.745 34.6347 243.745 35.584C243.745 36.5333 243.964 37.2747 244.401 37.808C244.849 38.3413 245.447 38.608 246.193 38.608C247.249 38.608 247.948 38.144 248.289 37.216H250.257C250.001 38.112 249.521 38.8267 248.817 39.36C248.113 39.8827 247.239 40.144 246.193 40.144C245.351 40.144 244.604 39.9573 243.953 39.584C243.303 39.2 242.791 38.6667 242.417 37.984C242.055 37.2907 241.873 36.4907 241.873 35.584ZM256.635 31.04C257.307 31.04 257.904 31.184 258.427 31.472C258.96 31.76 259.376 32.1867 259.675 32.752C259.984 33.3173 260.139 34 260.139 34.8V40H258.331V35.072C258.331 34.2827 258.134 33.68 257.739 33.264C257.344 32.8373 256.806 32.624 256.123 32.624C255.44 32.624 254.896 32.8373 254.491 33.264C254.096 33.68 253.899 34.2827 253.899 35.072V40H252.075V28.16H253.899V32.208C254.208 31.8347 254.598 31.5467 255.067 31.344C255.547 31.1413 256.07 31.04 256.635 31.04Z" fill="#2F281E"/>
<defs>
<filter id="filter0_d_5611_2" x="0" y="0" width="301" height="70.0959" filterUnits="userSpaceOnUse" color-interpolation-filters="sRGB">
<feFlood flood-opacity="0" result="BackgroundImageFix"/>
<feColorMatrix in="SourceAlpha" type="matrix" values="0 0 0 0 0 0 0 0 0 0 0 0 0 0 0 0 0 0 127 0" result="hardAlpha"/>
<feOffset dx="2" dy="2"/>
<feGaussianBlur stdDeviation="5"/>
<feColorMatrix type="matrix" values="0 0 0 0 0.0901961 0 0 0 0 0.227451 0 0 0 0 0.337255 0 0 0 0.15 0"/>
<feBlend mode="normal" in2="BackgroundImageFix" result="effect1_dropShadow_5611_2"/>
<feBlend mode="normal" in="SourceGraphic" in2="effect1_dropShadow_5611_2" result="shape"/>
</filter>
</defs>
</svg>
