<svg width="298" height="71" viewBox="0 0 298 71" fill="none" xmlns="http://www.w3.org/2000/svg">
<g filter="url(#filter0_d_5611_9)">
<path d="M289 33.0479C289 19.2143 277.302 8 262.872 8H34.1281C19.6979 8 8 19.2143 8 33.0479C8 46.8815 19.6979 58.0959 34.1281 58.0959H262.872C277.302 58.0959 289 46.8815 289 33.0479Z" fill="white"/>
</g>
<path d="M38.7584 27.88V39H36.9344V27.88H38.7584ZM44.7014 34.584C44.7014 33.6773 44.8827 32.8827 45.2454 32.2C45.6187 31.5067 46.1307 30.9733 46.7814 30.6C47.432 30.2267 48.1787 30.04 49.0214 30.04C50.088 30.04 50.968 30.296 51.6614 30.808C52.3654 31.3093 52.84 32.0293 53.0854 32.968H51.1174C50.9574 32.5307 50.7014 32.1893 50.3494 31.944C49.9974 31.6987 49.5547 31.576 49.0214 31.576C48.2747 31.576 47.6774 31.8427 47.2294 32.376C46.792 32.8987 46.5734 33.6347 46.5734 34.584C46.5734 35.5333 46.792 36.2747 47.2294 36.808C47.6774 37.3413 48.2747 37.608 49.0214 37.608C50.0774 37.608 50.776 37.144 51.1174 36.216H53.0854C52.8294 37.112 52.3494 37.8267 51.6454 38.36C50.9414 38.8827 50.0667 39.144 49.0214 39.144C48.1787 39.144 47.432 38.9573 46.7814 38.584C46.1307 38.2 45.6187 37.6667 45.2454 36.984C44.8827 36.2907 44.7014 35.4907 44.7014 34.584ZM54.2951 34.552C54.2951 33.6667 54.4765 32.8827 54.8391 32.2C55.2125 31.5173 55.7138 30.9893 56.3431 30.616C56.9831 30.232 57.6871 30.04 58.4551 30.04C59.1485 30.04 59.7511 30.1787 60.2631 30.456C60.7858 30.7227 61.2018 31.0587 61.5111 31.464V30.184H63.3511V39H61.5111V37.688C61.2018 38.104 60.7805 38.4507 60.2471 38.728C59.7138 39.0053 59.1058 39.144 58.4231 39.144C57.6658 39.144 56.9725 38.952 56.3431 38.568C55.7138 38.1733 55.2125 37.6293 54.8391 36.936C54.4765 36.232 54.2951 35.4373 54.2951 34.552ZM61.5111 34.584C61.5111 33.976 61.3831 33.448 61.1271 33C60.8818 32.552 60.5565 32.2107 60.1511 31.976C59.7458 31.7413 59.3085 31.624 58.8391 31.624C58.3698 31.624 57.9325 31.7413 57.5271 31.976C57.1218 32.2 56.7911 32.536 56.5351 32.984C56.2898 33.4213 56.1671 33.944 56.1671 34.552C56.1671 35.16 56.2898 35.6933 56.5351 36.152C56.7911 36.6107 57.1218 36.9627 57.5271 37.208C57.9431 37.4427 58.3805 37.56 58.8391 37.56C59.3085 37.56 59.7458 37.4427 60.1511 37.208C60.5565 36.9733 60.8818 36.632 61.1271 36.184C61.3831 35.7253 61.5111 35.192 61.5111 34.584ZM70.1949 30.04C70.8882 30.04 71.5069 30.184 72.0509 30.472C72.6055 30.76 73.0375 31.1867 73.3469 31.752C73.6562 32.3173 73.8109 33 73.8109 33.8V39H72.0029V34.072C72.0029 33.2827 71.8055 32.68 71.4109 32.264C71.0162 31.8373 70.4775 31.624 69.7949 31.624C69.1122 31.624 68.5682 31.8373 68.1629 32.264C67.7682 32.68 67.5709 33.2827 67.5709 34.072V39H65.7469V30.184H67.5709V31.192C67.8695 30.8293 68.2482 30.5467 68.7069 30.344C69.1762 30.1413 69.6722 30.04 70.1949 30.04ZM82.4218 31.672V36.552C82.4218 36.8827 82.4964 37.1227 82.6458 37.272C82.8058 37.4107 83.0724 37.48 83.4458 37.48H84.5658V39H83.1258C82.3044 39 81.6751 38.808 81.2378 38.424C80.8004 38.04 80.5818 37.416 80.5818 36.552V31.672H79.5418V30.184H80.5818V27.992H82.4218V30.184H84.5658V31.672H82.4218ZM85.6389 34.552C85.6389 33.6667 85.8202 32.8827 86.1829 32.2C86.5562 31.5173 87.0575 30.9893 87.6869 30.616C88.3269 30.232 89.0309 30.04 89.7989 30.04C90.4922 30.04 91.0949 30.1787 91.6069 30.456C92.1295 30.7227 92.5455 31.0587 92.8549 31.464V30.184H94.6949V39H92.8549V37.688C92.5455 38.104 92.1242 38.4507 91.5909 38.728C91.0575 39.0053 90.4495 39.144 89.7669 39.144C89.0095 39.144 88.3162 38.952 87.6869 38.568C87.0575 38.1733 86.5562 37.6293 86.1829 36.936C85.8202 36.232 85.6389 35.4373 85.6389 34.552ZM92.8549 34.584C92.8549 33.976 92.7269 33.448 92.4709 33C92.2255 32.552 91.9002 32.2107 91.4949 31.976C91.0895 31.7413 90.6522 31.624 90.1829 31.624C89.7135 31.624 89.2762 31.7413 88.8709 31.976C88.4655 32.2 88.1349 32.536 87.8789 32.984C87.6335 33.4213 87.5109 33.944 87.5109 34.552C87.5109 35.16 87.6335 35.6933 87.8789 36.152C88.1349 36.6107 88.4655 36.9627 88.8709 37.208C89.2869 37.4427 89.7242 37.56 90.1829 37.56C90.6522 37.56 91.0895 37.4427 91.4949 37.208C91.9002 36.9733 92.2255 36.632 92.4709 36.184C92.7269 35.7253 92.8549 35.192 92.8549 34.584ZM100.579 34.6L104.643 39H102.179L98.9146 35.208V39H97.0906V27.16H98.9146V34.04L102.115 30.184H104.643L100.579 34.6ZM114.03 34.376C114.03 34.7067 114.009 35.0053 113.966 35.272H107.23C107.283 35.976 107.545 36.5413 108.014 36.968C108.483 37.3947 109.059 37.608 109.742 37.608C110.723 37.608 111.417 37.1973 111.822 36.376H113.79C113.523 37.1867 113.038 37.8533 112.334 38.376C111.641 38.888 110.777 39.144 109.742 39.144C108.899 39.144 108.142 38.9573 107.47 38.584C106.809 38.2 106.286 37.6667 105.902 36.984C105.529 36.2907 105.342 35.4907 105.342 34.584C105.342 33.6773 105.523 32.8827 105.886 32.2C106.259 31.5067 106.777 30.9733 107.438 30.6C108.11 30.2267 108.878 30.04 109.742 30.04C110.574 30.04 111.315 30.2213 111.966 30.584C112.617 30.9467 113.123 31.4587 113.486 32.12C113.849 32.7707 114.03 33.5227 114.03 34.376ZM112.126 33.8C112.115 33.128 111.875 32.5893 111.406 32.184C110.937 31.7787 110.355 31.576 109.662 31.576C109.033 31.576 108.494 31.7787 108.046 32.184C107.598 32.5787 107.331 33.1173 107.246 33.8H112.126ZM119.373 34.584C119.373 33.6773 119.555 32.8827 119.917 32.2C120.291 31.5067 120.803 30.9733 121.453 30.6C122.104 30.2267 122.851 30.04 123.693 30.04C124.76 30.04 125.64 30.296 126.333 30.808C127.037 31.3093 127.512 32.0293 127.757 32.968H125.789C125.629 32.5307 125.373 32.1893 125.021 31.944C124.669 31.6987 124.227 31.576 123.693 31.576C122.947 31.576 122.349 31.8427 121.901 32.376C121.464 32.8987 121.245 33.6347 121.245 34.584C121.245 35.5333 121.464 36.2747 121.901 36.808C122.349 37.3413 122.947 37.608 123.693 37.608C124.749 37.608 125.448 37.144 125.789 36.216H127.757C127.501 37.112 127.021 37.8267 126.317 38.36C125.613 38.8827 124.739 39.144 123.693 39.144C122.851 39.144 122.104 38.9573 121.453 38.584C120.803 38.2 120.291 37.6667 119.917 36.984C119.555 36.2907 119.373 35.4907 119.373 34.584ZM128.967 34.552C128.967 33.6667 129.148 32.8827 129.511 32.2C129.884 31.5173 130.386 30.9893 131.015 30.616C131.655 30.232 132.359 30.04 133.127 30.04C133.82 30.04 134.423 30.1787 134.935 30.456C135.458 30.7227 135.874 31.0587 136.183 31.464V30.184H138.023V39H136.183V37.688C135.874 38.104 135.452 38.4507 134.919 38.728C134.386 39.0053 133.778 39.144 133.095 39.144C132.338 39.144 131.644 38.952 131.015 38.568C130.386 38.1733 129.884 37.6293 129.511 36.936C129.148 36.232 128.967 35.4373 128.967 34.552ZM136.183 34.584C136.183 33.976 136.055 33.448 135.799 33C135.554 32.552 135.228 32.2107 134.823 31.976C134.418 31.7413 133.98 31.624 133.511 31.624C133.042 31.624 132.604 31.7413 132.199 31.976C131.794 32.2 131.463 32.536 131.207 32.984C130.962 33.4213 130.839 33.944 130.839 34.552C130.839 35.16 130.962 35.6933 131.207 36.152C131.463 36.6107 131.794 36.9627 132.199 37.208C132.615 37.4427 133.052 37.56 133.511 37.56C133.98 37.56 134.418 37.4427 134.823 37.208C135.228 36.9733 135.554 36.632 135.799 36.184C136.055 35.7253 136.183 35.192 136.183 34.584ZM142.243 31.464C142.509 31.016 142.861 30.6693 143.299 30.424C143.747 30.168 144.275 30.04 144.883 30.04V31.928H144.419C143.704 31.928 143.16 32.1093 142.787 32.472C142.424 32.8347 142.243 33.464 142.243 34.36V39H140.419V30.184H142.243V31.464ZM154.639 34.376C154.639 34.7067 154.618 35.0053 154.575 35.272H147.839C147.893 35.976 148.154 36.5413 148.623 36.968C149.093 37.3947 149.669 37.608 150.351 37.608C151.333 37.608 152.026 37.1973 152.431 36.376H154.399C154.133 37.1867 153.647 37.8533 152.943 38.376C152.25 38.888 151.386 39.144 150.351 39.144C149.509 39.144 148.751 38.9573 148.079 38.584C147.418 38.2 146.895 37.6667 146.511 36.984C146.138 36.2907 145.951 35.4907 145.951 34.584C145.951 33.6773 146.133 32.8827 146.495 32.2C146.869 31.5067 147.386 30.9733 148.047 30.6C148.719 30.2267 149.487 30.04 150.351 30.04C151.183 30.04 151.925 30.2213 152.575 30.584C153.226 30.9467 153.733 31.4587 154.095 32.12C154.458 32.7707 154.639 33.5227 154.639 34.376ZM152.735 33.8C152.725 33.128 152.485 32.5893 152.015 32.184C151.546 31.7787 150.965 31.576 150.271 31.576C149.642 31.576 149.103 31.7787 148.655 32.184C148.207 32.5787 147.941 33.1173 147.855 33.8H152.735ZM164.415 39.144C163.583 39.144 162.831 38.9573 162.159 38.584C161.487 38.2 160.959 37.6667 160.575 36.984C160.191 36.2907 159.999 35.4907 159.999 34.584C159.999 33.688 160.196 32.8933 160.591 32.2C160.985 31.5067 161.524 30.9733 162.207 30.6C162.889 30.2267 163.652 30.04 164.495 30.04C165.337 30.04 166.1 30.2267 166.783 30.6C167.465 30.9733 168.004 31.5067 168.399 32.2C168.793 32.8933 168.991 33.688 168.991 34.584C168.991 35.48 168.788 36.2747 168.383 36.968C167.977 37.6613 167.423 38.2 166.719 38.584C166.025 38.9573 165.257 39.144 164.415 39.144ZM164.415 37.56C164.884 37.56 165.321 37.448 165.727 37.224C166.143 37 166.479 36.664 166.735 36.216C166.991 35.768 167.119 35.224 167.119 34.584C167.119 33.944 166.996 33.4053 166.751 32.968C166.505 32.52 166.18 32.184 165.775 31.96C165.369 31.736 164.932 31.624 164.463 31.624C163.993 31.624 163.556 31.736 163.151 31.96C162.756 32.184 162.441 32.52 162.207 32.968C161.972 33.4053 161.855 33.944 161.855 34.584C161.855 35.5333 162.095 36.2693 162.575 36.792C163.065 37.304 163.679 37.56 164.415 37.56ZM174.49 31.672H172.858V39H171.018V31.672H169.978V30.184H171.018V29.56C171.018 28.5467 171.284 27.8107 171.818 27.352C172.362 26.8827 173.21 26.648 174.362 26.648V28.168C173.807 28.168 173.418 28.2747 173.194 28.488C172.97 28.6907 172.858 29.048 172.858 29.56V30.184H174.49V31.672ZM188.199 30.184L182.791 43.144H180.903L182.695 38.856L179.223 30.184H181.255L183.735 36.904L186.311 30.184H188.199ZM193.399 39.144C192.567 39.144 191.815 38.9573 191.143 38.584C190.471 38.2 189.943 37.6667 189.559 36.984C189.175 36.2907 188.983 35.4907 188.983 34.584C188.983 33.688 189.18 32.8933 189.575 32.2C189.97 31.5067 190.508 30.9733 191.191 30.6C191.874 30.2267 192.636 30.04 193.479 30.04C194.322 30.04 195.084 30.2267 195.767 30.6C196.45 30.9733 196.988 31.5067 197.383 32.2C197.778 32.8933 197.975 33.688 197.975 34.584C197.975 35.48 197.772 36.2747 197.367 36.968C196.962 37.6613 196.407 38.2 195.703 38.584C195.01 38.9573 194.242 39.144 193.399 39.144ZM193.399 37.56C193.868 37.56 194.306 37.448 194.711 37.224C195.127 37 195.463 36.664 195.719 36.216C195.975 35.768 196.103 35.224 196.103 34.584C196.103 33.944 195.98 33.4053 195.735 32.968C195.49 32.52 195.164 32.184 194.759 31.96C194.354 31.736 193.916 31.624 193.447 31.624C192.978 31.624 192.54 31.736 192.135 31.96C191.74 32.184 191.426 32.52 191.191 32.968C190.956 33.4053 190.839 33.944 190.839 34.584C190.839 35.5333 191.079 36.2693 191.559 36.792C192.05 37.304 192.663 37.56 193.399 37.56ZM207.762 30.184V39H205.938V37.96C205.65 38.3227 205.271 38.6107 204.802 38.824C204.343 39.0267 203.853 39.128 203.33 39.128C202.637 39.128 202.013 38.984 201.458 38.696C200.914 38.408 200.482 37.9813 200.162 37.416C199.853 36.8507 199.698 36.168 199.698 35.368V30.184H201.506V35.096C201.506 35.8853 201.703 36.4933 202.098 36.92C202.493 37.336 203.031 37.544 203.714 37.544C204.397 37.544 204.935 37.336 205.33 36.92C205.735 36.4933 205.938 35.8853 205.938 35.096V30.184H207.762ZM211.993 31.464C212.259 31.016 212.611 30.6693 213.049 30.424C213.497 30.168 214.025 30.04 214.633 30.04V31.928H214.169C213.454 31.928 212.91 32.1093 212.537 32.472C212.174 32.8347 211.993 33.464 211.993 34.36V39H210.169V30.184H211.993V31.464ZM222.29 31.48C222.599 31.0747 223.02 30.7333 223.554 30.456C224.087 30.1787 224.69 30.04 225.362 30.04C226.13 30.04 226.828 30.232 227.458 30.616C228.098 30.9893 228.599 31.5173 228.962 32.2C229.324 32.8827 229.506 33.6667 229.506 34.552C229.506 35.4373 229.324 36.232 228.962 36.936C228.599 37.6293 228.098 38.1733 227.458 38.568C226.828 38.952 226.13 39.144 225.362 39.144C224.69 39.144 224.092 39.0107 223.57 38.744C223.047 38.4667 222.62 38.1253 222.29 37.72V43.192H220.466V30.184H222.29V31.48ZM227.65 34.552C227.65 33.944 227.522 33.4213 227.266 32.984C227.02 32.536 226.69 32.2 226.274 31.976C225.868 31.7413 225.431 31.624 224.962 31.624C224.503 31.624 224.066 31.7413 223.65 31.976C223.244 32.2107 222.914 32.552 222.658 33C222.412 33.448 222.29 33.976 222.29 34.584C222.29 35.192 222.412 35.7253 222.658 36.184C222.914 36.632 223.244 36.9733 223.65 37.208C224.066 37.4427 224.503 37.56 224.962 37.56C225.431 37.56 225.868 37.4427 226.274 37.208C226.69 36.9627 227.02 36.6107 227.266 36.152C227.522 35.6933 227.65 35.16 227.65 34.552ZM232.237 29.016C231.907 29.016 231.629 28.904 231.405 28.68C231.181 28.456 231.069 28.1787 231.069 27.848C231.069 27.5173 231.181 27.24 231.405 27.016C231.629 26.792 231.907 26.68 232.237 26.68C232.557 26.68 232.829 26.792 233.053 27.016C233.277 27.24 233.389 27.5173 233.389 27.848C233.389 28.1787 233.277 28.456 233.053 28.68C232.829 28.904 232.557 29.016 232.237 29.016ZM233.133 30.184V39H231.309V30.184H233.133ZM237.656 31.672V36.552C237.656 36.8827 237.731 37.1227 237.88 37.272C238.04 37.4107 238.307 37.48 238.68 37.48H239.8V39H238.36C237.539 39 236.909 38.808 236.472 38.424C236.035 38.04 235.816 37.416 235.816 36.552V31.672H234.776V30.184H235.816V27.992H237.656V30.184H239.8V31.672H237.656ZM240.873 34.584C240.873 33.6773 241.055 32.8827 241.417 32.2C241.791 31.5067 242.303 30.9733 242.953 30.6C243.604 30.2267 244.351 30.04 245.193 30.04C246.26 30.04 247.14 30.296 247.833 30.808C248.537 31.3093 249.012 32.0293 249.257 32.968H247.289C247.129 32.5307 246.873 32.1893 246.521 31.944C246.169 31.6987 245.727 31.576 245.193 31.576C244.447 31.576 243.849 31.8427 243.401 32.376C242.964 32.8987 242.745 33.6347 242.745 34.584C242.745 35.5333 242.964 36.2747 243.401 36.808C243.849 37.3413 244.447 37.608 245.193 37.608C246.249 37.608 246.948 37.144 247.289 36.216H249.257C249.001 37.112 248.521 37.8267 247.817 38.36C247.113 38.8827 246.239 39.144 245.193 39.144C244.351 39.144 243.604 38.9573 242.953 38.584C242.303 38.2 241.791 37.6667 241.417 36.984C241.055 36.2907 240.873 35.4907 240.873 34.584ZM255.635 30.04C256.307 30.04 256.904 30.184 257.427 30.472C257.96 30.76 258.376 31.1867 258.675 31.752C258.984 32.3173 259.139 33 259.139 33.8V39H257.331V34.072C257.331 33.2827 257.134 32.68 256.739 32.264C256.344 31.8373 255.806 31.624 255.123 31.624C254.44 31.624 253.896 31.8373 253.491 32.264C253.096 32.68 252.899 33.2827 252.899 34.072V39H251.075V27.16H252.899V31.208C253.208 30.8347 253.598 30.5467 254.067 30.344C254.547 30.1413 255.07 30.04 255.635 30.04Z" fill="#2F281E"/>
<defs>
<filter id="filter0_d_5611_9" x="0" y="0" width="301" height="70.0959" filterUnits="userSpaceOnUse" color-interpolation-filters="sRGB">
<feFlood flood-opacity="0" result="BackgroundImageFix"/>
<feColorMatrix in="SourceAlpha" type="matrix" values="0 0 0 0 0 0 0 0 0 0 0 0 0 0 0 0 0 0 127 0" result="hardAlpha"/>
<feOffset dx="2" dy="2"/>
<feGaussianBlur stdDeviation="5"/>
<feColorMatrix type="matrix" values="0 0 0 0 0.0901961 0 0 0 0 0.227451 0 0 0 0 0.337255 0 0 0 0.15 0"/>
<feBlend mode="normal" in2="BackgroundImageFix" result="effect1_dropShadow_5611_9"/>
<feBlend mode="normal" in="SourceGraphic" in2="effect1_dropShadow_5611_9" result="shape"/>
</filter>
</defs>
</svg>
