<svg width="298" height="71" viewBox="0 0 298 71" fill="none" xmlns="http://www.w3.org/2000/svg">
<g filter="url(#filter0_d_5611_11)">
<path d="M289 33.0479C289 19.2143 277.302 8 262.872 8H34.1281C19.6979 8 8 19.2143 8 33.0479C8 46.8815 19.6979 58.0959 34.1281 58.0959H262.872C277.302 58.0959 289 46.8815 289 33.0479Z" fill="white"/>
</g>
<path d="M32.9146 27.88V39H31.0906V27.88H32.9146ZM38.8576 34.584C38.8576 33.6773 39.039 32.8827 39.4016 32.2C39.775 31.5067 40.287 30.9733 40.9376 30.6C41.5883 30.2267 42.335 30.04 43.1776 30.04C44.2443 30.04 45.1243 30.296 45.8176 30.808C46.5216 31.3093 46.9963 32.0293 47.2416 32.968H45.2736C45.1136 32.5307 44.8576 32.1893 44.5056 31.944C44.1536 31.6987 43.711 31.576 43.1776 31.576C42.431 31.576 41.8336 31.8427 41.3856 32.376C40.9483 32.8987 40.7296 33.6347 40.7296 34.584C40.7296 35.5333 40.9483 36.2747 41.3856 36.808C41.8336 37.3413 42.431 37.608 43.1776 37.608C44.2336 37.608 44.9323 37.144 45.2736 36.216H47.2416C46.9856 37.112 46.5056 37.8267 45.8016 38.36C45.0976 38.8827 44.223 39.144 43.1776 39.144C42.335 39.144 41.5883 38.9573 40.9376 38.584C40.287 38.2 39.775 37.6667 39.4016 36.984C39.039 36.2907 38.8576 35.4907 38.8576 34.584ZM48.4514 34.552C48.4514 33.6667 48.6327 32.8827 48.9954 32.2C49.3687 31.5173 49.87 30.9893 50.4994 30.616C51.1394 30.232 51.8434 30.04 52.6114 30.04C53.3047 30.04 53.9074 30.1787 54.4194 30.456C54.942 30.7227 55.358 31.0587 55.6674 31.464V30.184H57.5074V39H55.6674V37.688C55.358 38.104 54.9367 38.4507 54.4034 38.728C53.87 39.0053 53.262 39.144 52.5794 39.144C51.822 39.144 51.1287 38.952 50.4994 38.568C49.87 38.1733 49.3687 37.6293 48.9954 36.936C48.6327 36.232 48.4514 35.4373 48.4514 34.552ZM55.6674 34.584C55.6674 33.976 55.5394 33.448 55.2834 33C55.038 32.552 54.7127 32.2107 54.3074 31.976C53.902 31.7413 53.4647 31.624 52.9954 31.624C52.526 31.624 52.0887 31.7413 51.6834 31.976C51.278 32.2 50.9474 32.536 50.6914 32.984C50.446 33.4213 50.3234 33.944 50.3234 34.552C50.3234 35.16 50.446 35.6933 50.6914 36.152C50.9474 36.6107 51.278 36.9627 51.6834 37.208C52.0994 37.4427 52.5367 37.56 52.9954 37.56C53.4647 37.56 53.902 37.4427 54.3074 37.208C54.7127 36.9733 55.038 36.632 55.2834 36.184C55.5394 35.7253 55.6674 35.192 55.6674 34.584ZM64.3511 30.04C65.0445 30.04 65.6631 30.184 66.2071 30.472C66.7618 30.76 67.1938 31.1867 67.5031 31.752C67.8125 32.3173 67.9671 33 67.9671 33.8V39H66.1591V34.072C66.1591 33.2827 65.9618 32.68 65.5671 32.264C65.1725 31.8373 64.6338 31.624 63.9511 31.624C63.2685 31.624 62.7245 31.8373 62.3191 32.264C61.9245 32.68 61.7271 33.2827 61.7271 34.072V39H59.9031V30.184H61.7271V31.192C62.0258 30.8293 62.4045 30.5467 62.8631 30.344C63.3325 30.1413 63.8285 30.04 64.3511 30.04ZM79.01 30.04C79.682 30.04 80.2793 30.184 80.802 30.472C81.3353 30.76 81.7513 31.1867 82.05 31.752C82.3593 32.3173 82.514 33 82.514 33.8V39H80.706V34.072C80.706 33.2827 80.5087 32.68 80.114 32.264C79.7193 31.8373 79.1807 31.624 78.498 31.624C77.8153 31.624 77.2713 31.8373 76.866 32.264C76.4713 32.68 76.274 33.2827 76.274 34.072V39H74.45V27.16H76.274V31.208C76.5833 30.8347 76.9727 30.5467 77.442 30.344C77.922 30.1413 78.4447 30.04 79.01 30.04ZM92.9206 34.376C92.9206 34.7067 92.8993 35.0053 92.8566 35.272H86.1206C86.174 35.976 86.4353 36.5413 86.9046 36.968C87.374 37.3947 87.95 37.608 88.6326 37.608C89.614 37.608 90.3073 37.1973 90.7126 36.376H92.6806C92.414 37.1867 91.9286 37.8533 91.2246 38.376C90.5313 38.888 89.6673 39.144 88.6326 39.144C87.79 39.144 87.0326 38.9573 86.3606 38.584C85.6993 38.2 85.1766 37.6667 84.7926 36.984C84.4193 36.2907 84.2326 35.4907 84.2326 34.584C84.2326 33.6773 84.414 32.8827 84.7766 32.2C85.15 31.5067 85.6673 30.9733 86.3286 30.6C87.0006 30.2267 87.7686 30.04 88.6326 30.04C89.4646 30.04 90.206 30.2213 90.8566 30.584C91.5073 30.9467 92.014 31.4587 92.3766 32.12C92.7393 32.7707 92.9206 33.5227 92.9206 34.376ZM91.0166 33.8C91.006 33.128 90.766 32.5893 90.2966 32.184C89.8273 31.7787 89.246 31.576 88.5526 31.576C87.9233 31.576 87.3846 31.7787 86.9366 32.184C86.4886 32.5787 86.222 33.1173 86.1366 33.8H91.0166ZM96.5396 27.16V39H94.7156V27.16H96.5396ZM100.758 31.48C101.068 31.0747 101.489 30.7333 102.022 30.456C102.556 30.1787 103.158 30.04 103.83 30.04C104.598 30.04 105.297 30.232 105.926 30.616C106.566 30.9893 107.068 31.5173 107.43 32.2C107.793 32.8827 107.974 33.6667 107.974 34.552C107.974 35.4373 107.793 36.232 107.43 36.936C107.068 37.6293 106.566 38.1733 105.926 38.568C105.297 38.952 104.598 39.144 103.83 39.144C103.158 39.144 102.561 39.0107 102.038 38.744C101.516 38.4667 101.089 38.1253 100.758 37.72V43.192H98.9344V30.184H100.758V31.48ZM106.118 34.552C106.118 33.944 105.99 33.4213 105.734 32.984C105.489 32.536 105.158 32.2 104.742 31.976C104.337 31.7413 103.9 31.624 103.43 31.624C102.972 31.624 102.534 31.7413 102.118 31.976C101.713 32.2107 101.382 32.552 101.126 33C100.881 33.448 100.758 33.976 100.758 34.584C100.758 35.192 100.881 35.7253 101.126 36.184C101.382 36.632 101.713 36.9733 102.118 37.208C102.534 37.4427 102.972 37.56 103.43 37.56C103.9 37.56 104.337 37.4427 104.742 37.208C105.158 36.9627 105.489 36.6107 105.734 36.152C105.99 35.6933 106.118 35.16 106.118 34.552ZM124.606 30.04C125.3 30.04 125.918 30.184 126.462 30.472C127.017 30.76 127.449 31.1867 127.758 31.752C128.078 32.3173 128.238 33 128.238 33.8V39H126.43V34.072C126.43 33.2827 126.233 32.68 125.838 32.264C125.444 31.8373 124.905 31.624 124.222 31.624C123.54 31.624 122.996 31.8373 122.59 32.264C122.196 32.68 121.998 33.2827 121.998 34.072V39H120.19V34.072C120.19 33.2827 119.993 32.68 119.598 32.264C119.204 31.8373 118.665 31.624 117.982 31.624C117.3 31.624 116.756 31.8373 116.35 32.264C115.956 32.68 115.758 33.2827 115.758 34.072V39H113.934V30.184H115.758V31.192C116.057 30.8293 116.436 30.5467 116.894 30.344C117.353 30.1413 117.844 30.04 118.366 30.04C119.07 30.04 119.7 30.1893 120.254 30.488C120.809 30.7867 121.236 31.2187 121.534 31.784C121.801 31.2507 122.217 30.8293 122.782 30.52C123.348 30.2 123.956 30.04 124.606 30.04ZM129.951 34.552C129.951 33.6667 130.133 32.8827 130.495 32.2C130.869 31.5173 131.37 30.9893 131.999 30.616C132.639 30.232 133.343 30.04 134.111 30.04C134.805 30.04 135.407 30.1787 135.919 30.456C136.442 30.7227 136.858 31.0587 137.167 31.464V30.184H139.007V39H137.167V37.688C136.858 38.104 136.437 38.4507 135.903 38.728C135.37 39.0053 134.762 39.144 134.079 39.144C133.322 39.144 132.629 38.952 131.999 38.568C131.37 38.1733 130.869 37.6293 130.495 36.936C130.133 36.232 129.951 35.4373 129.951 34.552ZM137.167 34.584C137.167 33.976 137.039 33.448 136.783 33C136.538 32.552 136.213 32.2107 135.807 31.976C135.402 31.7413 134.965 31.624 134.495 31.624C134.026 31.624 133.589 31.7413 133.183 31.976C132.778 32.2 132.447 32.536 132.191 32.984C131.946 33.4213 131.823 33.944 131.823 34.552C131.823 35.16 131.946 35.6933 132.191 36.152C132.447 36.6107 132.778 36.9627 133.183 37.208C133.599 37.4427 134.037 37.56 134.495 37.56C134.965 37.56 135.402 37.4427 135.807 37.208C136.213 36.9733 136.538 36.632 136.783 36.184C137.039 35.7253 137.167 35.192 137.167 34.584ZM143.227 31.464C143.494 31.016 143.846 30.6693 144.283 30.424C144.731 30.168 145.259 30.04 145.867 30.04V31.928H145.403C144.688 31.928 144.144 32.1093 143.771 32.472C143.408 32.8347 143.227 33.464 143.227 34.36V39H141.403V30.184H143.227V31.464ZM151.032 34.6L155.096 39H152.632L149.368 35.208V39H147.544V27.16H149.368V34.04L152.568 30.184H155.096L151.032 34.6ZM164.483 34.376C164.483 34.7067 164.462 35.0053 164.419 35.272H157.683C157.736 35.976 157.998 36.5413 158.467 36.968C158.936 37.3947 159.512 37.608 160.195 37.608C161.176 37.608 161.87 37.1973 162.275 36.376H164.243C163.976 37.1867 163.491 37.8533 162.787 38.376C162.094 38.888 161.23 39.144 160.195 39.144C159.352 39.144 158.595 38.9573 157.923 38.584C157.262 38.2 156.739 37.6667 156.355 36.984C155.982 36.2907 155.795 35.4907 155.795 34.584C155.795 33.6773 155.976 32.8827 156.339 32.2C156.712 31.5067 157.23 30.9733 157.891 30.6C158.563 30.2267 159.331 30.04 160.195 30.04C161.027 30.04 161.768 30.2213 162.419 30.584C163.07 30.9467 163.576 31.4587 163.939 32.12C164.302 32.7707 164.483 33.5227 164.483 34.376ZM162.579 33.8C162.568 33.128 162.328 32.5893 161.859 32.184C161.39 31.7787 160.808 31.576 160.115 31.576C159.486 31.576 158.947 31.7787 158.499 32.184C158.051 32.5787 157.784 33.1173 157.699 33.8H162.579ZM168.406 31.672V36.552C168.406 36.8827 168.481 37.1227 168.63 37.272C168.79 37.4107 169.057 37.48 169.43 37.48H170.55V39H169.11C168.289 39 167.659 38.808 167.222 38.424C166.785 38.04 166.566 37.416 166.566 36.552V31.672H165.526V30.184H166.566V27.992H168.406V30.184H170.55V31.672H168.406ZM173.159 29.016C172.829 29.016 172.551 28.904 172.327 28.68C172.103 28.456 171.991 28.1787 171.991 27.848C171.991 27.5173 172.103 27.24 172.327 27.016C172.551 26.792 172.829 26.68 173.159 26.68C173.479 26.68 173.751 26.792 173.975 27.016C174.199 27.24 174.311 27.5173 174.311 27.848C174.311 28.1787 174.199 28.456 173.975 28.68C173.751 28.904 173.479 29.016 173.159 29.016ZM174.055 30.184V39H172.231V30.184H174.055ZM180.898 30.04C181.591 30.04 182.21 30.184 182.754 30.472C183.309 30.76 183.741 31.1867 184.05 31.752C184.359 32.3173 184.514 33 184.514 33.8V39H182.706V34.072C182.706 33.2827 182.509 32.68 182.114 32.264C181.719 31.8373 181.181 31.624 180.498 31.624C179.815 31.624 179.271 31.8373 178.866 32.264C178.471 32.68 178.274 33.2827 178.274 34.072V39H176.45V30.184H178.274V31.192C178.573 30.8293 178.951 30.5467 179.41 30.344C179.879 30.1413 180.375 30.04 180.898 30.04ZM190.393 30.04C191.075 30.04 191.678 30.1787 192.201 30.456C192.734 30.7227 193.15 31.0587 193.449 31.464V30.184H195.289V39.144C195.289 39.9547 195.118 40.6747 194.777 41.304C194.435 41.944 193.939 42.4453 193.289 42.808C192.649 43.1707 191.881 43.352 190.985 43.352C189.79 43.352 188.798 43.0693 188.009 42.504C187.219 41.9493 186.771 41.192 186.665 40.232H188.473C188.611 40.6907 188.905 41.0587 189.353 41.336C189.811 41.624 190.355 41.768 190.985 41.768C191.721 41.768 192.313 41.544 192.761 41.096C193.219 40.648 193.449 39.9973 193.449 39.144V37.672C193.139 38.088 192.718 38.44 192.185 38.728C191.662 39.0053 191.065 39.144 190.393 39.144C189.625 39.144 188.921 38.952 188.281 38.568C187.651 38.1733 187.15 37.6293 186.777 36.936C186.414 36.232 186.233 35.4373 186.233 34.552C186.233 33.6667 186.414 32.8827 186.777 32.2C187.15 31.5173 187.651 30.9893 188.281 30.616C188.921 30.232 189.625 30.04 190.393 30.04ZM193.449 34.584C193.449 33.976 193.321 33.448 193.065 33C192.819 32.552 192.494 32.2107 192.089 31.976C191.683 31.7413 191.246 31.624 190.777 31.624C190.307 31.624 189.87 31.7413 189.465 31.976C189.059 32.2 188.729 32.536 188.473 32.984C188.227 33.4213 188.105 33.944 188.105 34.552C188.105 35.16 188.227 35.6933 188.473 36.152C188.729 36.6107 189.059 36.9627 189.465 37.208C189.881 37.4427 190.318 37.56 190.777 37.56C191.246 37.56 191.683 37.4427 192.089 37.208C192.494 36.9733 192.819 36.632 193.065 36.184C193.321 35.7253 193.449 35.192 193.449 34.584ZM205.041 39.144C204.347 39.144 203.723 39.0213 203.169 38.776C202.625 38.52 202.193 38.1787 201.873 37.752C201.553 37.3147 201.382 36.8293 201.361 36.296H203.249C203.281 36.6693 203.457 36.984 203.777 37.24C204.107 37.4853 204.518 37.608 205.009 37.608C205.521 37.608 205.915 37.512 206.193 37.32C206.481 37.1173 206.625 36.8613 206.625 36.552C206.625 36.2213 206.465 35.976 206.145 35.816C205.835 35.656 205.339 35.48 204.657 35.288C203.995 35.1067 203.457 34.9307 203.041 34.76C202.625 34.5893 202.262 34.328 201.953 33.976C201.654 33.624 201.505 33.16 201.505 32.584C201.505 32.1147 201.643 31.688 201.921 31.304C202.198 30.9093 202.593 30.6 203.105 30.376C203.627 30.152 204.225 30.04 204.897 30.04C205.899 30.04 206.705 30.296 207.313 30.808C207.931 31.3093 208.262 31.9973 208.305 32.872H206.481C206.449 32.4773 206.289 32.1627 206.001 31.928C205.713 31.6933 205.323 31.576 204.833 31.576C204.353 31.576 203.985 31.6667 203.729 31.848C203.473 32.0293 203.345 32.2693 203.345 32.568C203.345 32.8027 203.43 33 203.601 33.16C203.771 33.32 203.979 33.448 204.225 33.544C204.47 33.6293 204.833 33.7413 205.313 33.88C205.953 34.0507 206.475 34.2267 206.881 34.408C207.297 34.5787 207.654 34.8347 207.953 35.176C208.251 35.5173 208.406 35.9707 208.417 36.536C208.417 37.0373 208.278 37.4853 208.001 37.88C207.723 38.2747 207.329 38.584 206.817 38.808C206.315 39.032 205.723 39.144 205.041 39.144ZM212.516 31.672V36.552C212.516 36.8827 212.59 37.1227 212.74 37.272C212.9 37.4107 213.166 37.48 213.54 37.48H214.66V39H213.22C212.398 39 211.769 38.808 211.332 38.424C210.894 38.04 210.676 37.416 210.676 36.552V31.672H209.636V30.184H210.676V27.992H212.516V30.184H214.66V31.672H212.516ZM218.165 31.464C218.431 31.016 218.783 30.6693 219.221 30.424C219.669 30.168 220.197 30.04 220.805 30.04V31.928H220.341C219.626 31.928 219.082 32.1093 218.709 32.472C218.346 32.8347 218.165 33.464 218.165 34.36V39H216.341V30.184H218.165V31.464ZM221.873 34.552C221.873 33.6667 222.055 32.8827 222.417 32.2C222.791 31.5173 223.292 30.9893 223.921 30.616C224.561 30.232 225.265 30.04 226.033 30.04C226.727 30.04 227.329 30.1787 227.841 30.456C228.364 30.7227 228.78 31.0587 229.089 31.464V30.184H230.929V39H229.089V37.688C228.78 38.104 228.359 38.4507 227.825 38.728C227.292 39.0053 226.684 39.144 226.001 39.144C225.244 39.144 224.551 38.952 223.921 38.568C223.292 38.1733 222.791 37.6293 222.417 36.936C222.055 36.232 221.873 35.4373 221.873 34.552ZM229.089 34.584C229.089 33.976 228.961 33.448 228.705 33C228.46 32.552 228.135 32.2107 227.729 31.976C227.324 31.7413 226.887 31.624 226.417 31.624C225.948 31.624 225.511 31.7413 225.105 31.976C224.7 32.2 224.369 32.536 224.113 32.984C223.868 33.4213 223.745 33.944 223.745 34.552C223.745 35.16 223.868 35.6933 224.113 36.152C224.369 36.6107 224.7 36.9627 225.105 37.208C225.521 37.4427 225.959 37.56 226.417 37.56C226.887 37.56 227.324 37.4427 227.729 37.208C228.135 36.9733 228.46 36.632 228.705 36.184C228.961 35.7253 229.089 35.192 229.089 34.584ZM235.453 31.672V36.552C235.453 36.8827 235.528 37.1227 235.677 37.272C235.837 37.4107 236.104 37.48 236.477 37.48H237.597V39H236.157C235.336 39 234.706 38.808 234.269 38.424C233.832 38.04 233.613 37.416 233.613 36.552V31.672H232.573V30.184H233.613V27.992H235.453V30.184H237.597V31.672H235.453ZM247.358 34.376C247.358 34.7067 247.337 35.0053 247.294 35.272H240.558C240.611 35.976 240.873 36.5413 241.342 36.968C241.811 37.3947 242.387 37.608 243.07 37.608C244.051 37.608 244.745 37.1973 245.15 36.376H247.118C246.851 37.1867 246.366 37.8533 245.662 38.376C244.969 38.888 244.105 39.144 243.07 39.144C242.227 39.144 241.47 38.9573 240.798 38.584C240.137 38.2 239.614 37.6667 239.23 36.984C238.857 36.2907 238.67 35.4907 238.67 34.584C238.67 33.6773 238.851 32.8827 239.214 32.2C239.587 31.5067 240.105 30.9733 240.766 30.6C241.438 30.2267 242.206 30.04 243.07 30.04C243.902 30.04 244.643 30.2213 245.294 30.584C245.945 30.9467 246.451 31.4587 246.814 32.12C247.177 32.7707 247.358 33.5227 247.358 34.376ZM245.454 33.8C245.443 33.128 245.203 32.5893 244.734 32.184C244.265 31.7787 243.683 31.576 242.99 31.576C242.361 31.576 241.822 31.7787 241.374 32.184C240.926 32.5787 240.659 33.1173 240.574 33.8H245.454ZM252.705 30.04C253.388 30.04 253.99 30.1787 254.513 30.456C255.046 30.7227 255.462 31.0587 255.761 31.464V30.184H257.601V39.144C257.601 39.9547 257.43 40.6747 257.089 41.304C256.748 41.944 256.252 42.4453 255.601 42.808C254.961 43.1707 254.193 43.352 253.297 43.352C252.102 43.352 251.11 43.0693 250.321 42.504C249.532 41.9493 249.084 41.192 248.977 40.232H250.785C250.924 40.6907 251.217 41.0587 251.665 41.336C252.124 41.624 252.668 41.768 253.297 41.768C254.033 41.768 254.625 41.544 255.073 41.096C255.532 40.648 255.761 39.9973 255.761 39.144V37.672C255.452 38.088 255.03 38.44 254.497 38.728C253.974 39.0053 253.377 39.144 252.705 39.144C251.937 39.144 251.233 38.952 250.593 38.568C249.964 38.1733 249.462 37.6293 249.089 36.936C248.726 36.232 248.545 35.4373 248.545 34.552C248.545 33.6667 248.726 32.8827 249.089 32.2C249.462 31.5173 249.964 30.9893 250.593 30.616C251.233 30.232 251.937 30.04 252.705 30.04ZM255.761 34.584C255.761 33.976 255.633 33.448 255.377 33C255.132 32.552 254.806 32.2107 254.401 31.976C253.996 31.7413 253.558 31.624 253.089 31.624C252.62 31.624 252.182 31.7413 251.777 31.976C251.372 32.2 251.041 32.536 250.785 32.984C250.54 33.4213 250.417 33.944 250.417 34.552C250.417 35.16 250.54 35.6933 250.785 36.152C251.041 36.6107 251.372 36.9627 251.777 37.208C252.193 37.4427 252.63 37.56 253.089 37.56C253.558 37.56 253.996 37.4427 254.401 37.208C254.806 36.9733 255.132 36.632 255.377 36.184C255.633 35.7253 255.761 35.192 255.761 34.584ZM267.933 30.184L262.525 43.144H260.637L262.429 38.856L258.957 30.184H260.989L263.469 36.904L266.045 30.184H267.933Z" fill="#2F281E"/>
<defs>
<filter id="filter0_d_5611_11" x="0" y="0" width="301" height="70.0959" filterUnits="userSpaceOnUse" color-interpolation-filters="sRGB">
<feFlood flood-opacity="0" result="BackgroundImageFix"/>
<feColorMatrix in="SourceAlpha" type="matrix" values="0 0 0 0 0 0 0 0 0 0 0 0 0 0 0 0 0 0 127 0" result="hardAlpha"/>
<feOffset dx="2" dy="2"/>
<feGaussianBlur stdDeviation="5"/>
<feColorMatrix type="matrix" values="0 0 0 0 0.0901961 0 0 0 0 0.227451 0 0 0 0 0.337255 0 0 0 0.15 0"/>
<feBlend mode="normal" in2="BackgroundImageFix" result="effect1_dropShadow_5611_11"/>
<feBlend mode="normal" in="SourceGraphic" in2="effect1_dropShadow_5611_11" result="shape"/>
</filter>
</defs>
</svg>
