<svg width="298" height="71" viewBox="0 0 298 71" fill="none" xmlns="http://www.w3.org/2000/svg">
<g filter="url(#filter0_d_5611_7)">
<path d="M289 33.0479C289 19.2143 277.302 8 262.872 8H34.1281C19.6979 8 8 19.2143 8 33.0479C8 46.8815 19.6979 58.0959 34.1281 58.0959H262.872C277.302 58.0959 289 46.8815 289 33.0479Z" fill="white"/>
</g>
<path d="M51.2349 28.88V40H49.4109V28.88H51.2349ZM57.1779 35.584C57.1779 34.6773 57.3593 33.8827 57.7219 33.2C58.0953 32.5067 58.6073 31.9733 59.2579 31.6C59.9086 31.2267 60.6553 31.04 61.4979 31.04C62.5646 31.04 63.4446 31.296 64.1379 31.808C64.8419 32.3093 65.3166 33.0293 65.5619 33.968H63.5939C63.4339 33.5307 63.1779 33.1893 62.8259 32.944C62.4739 32.6987 62.0313 32.576 61.4979 32.576C60.7513 32.576 60.1539 32.8427 59.7059 33.376C59.2686 33.8987 59.0499 34.6347 59.0499 35.584C59.0499 36.5333 59.2686 37.2747 59.7059 37.808C60.1539 38.3413 60.7513 38.608 61.4979 38.608C62.5539 38.608 63.2526 38.144 63.5939 37.216H65.5619C65.3059 38.112 64.8259 38.8267 64.1219 39.36C63.4179 39.8827 62.5433 40.144 61.4979 40.144C60.6553 40.144 59.9086 39.9573 59.2579 39.584C58.6073 39.2 58.0953 38.6667 57.7219 37.984C57.3593 37.2907 57.1779 36.4907 57.1779 35.584ZM66.7717 35.552C66.7717 34.6667 66.953 33.8827 67.3157 33.2C67.689 32.5173 68.1904 31.9893 68.8197 31.616C69.4597 31.232 70.1637 31.04 70.9317 31.04C71.625 31.04 72.2277 31.1787 72.7397 31.456C73.2624 31.7227 73.6784 32.0587 73.9877 32.464V31.184H75.8277V40H73.9877V38.688C73.6784 39.104 73.257 39.4507 72.7237 39.728C72.1904 40.0053 71.5824 40.144 70.8997 40.144C70.1424 40.144 69.449 39.952 68.8197 39.568C68.1904 39.1733 67.689 38.6293 67.3157 37.936C66.953 37.232 66.7717 36.4373 66.7717 35.552ZM73.9877 35.584C73.9877 34.976 73.8597 34.448 73.6037 34C73.3584 33.552 73.033 33.2107 72.6277 32.976C72.2224 32.7413 71.785 32.624 71.3157 32.624C70.8464 32.624 70.409 32.7413 70.0037 32.976C69.5984 33.2 69.2677 33.536 69.0117 33.984C68.7664 34.4213 68.6437 34.944 68.6437 35.552C68.6437 36.16 68.7664 36.6933 69.0117 37.152C69.2677 37.6107 69.5984 37.9627 70.0037 38.208C70.4197 38.4427 70.857 38.56 71.3157 38.56C71.785 38.56 72.2224 38.4427 72.6277 38.208C73.033 37.9733 73.3584 37.632 73.6037 37.184C73.8597 36.7253 73.9877 36.192 73.9877 35.584ZM82.6714 31.04C83.3648 31.04 83.9834 31.184 84.5274 31.472C85.0821 31.76 85.5141 32.1867 85.8234 32.752C86.1328 33.3173 86.2874 34 86.2874 34.8V40H84.4794V35.072C84.4794 34.2827 84.2821 33.68 83.8874 33.264C83.4928 32.8373 82.9541 32.624 82.2714 32.624C81.5888 32.624 81.0448 32.8373 80.6394 33.264C80.2448 33.68 80.0474 34.2827 80.0474 35.072V40H78.2234V31.184H80.0474V32.192C80.3461 31.8293 80.7248 31.5467 81.1834 31.344C81.6528 31.1413 82.1488 31.04 82.6714 31.04ZM94.5943 32.48C94.9036 32.0747 95.325 31.7333 95.8583 31.456C96.3916 31.1787 96.9943 31.04 97.6663 31.04C98.4343 31.04 99.133 31.232 99.7623 31.616C100.402 31.9893 100.904 32.5173 101.266 33.2C101.629 33.8827 101.81 34.6667 101.81 35.552C101.81 36.4373 101.629 37.232 101.266 37.936C100.904 38.6293 100.402 39.1733 99.7623 39.568C99.133 39.952 98.4343 40.144 97.6663 40.144C96.9943 40.144 96.397 40.0107 95.8743 39.744C95.3516 39.4667 94.925 39.1253 94.5943 38.72V44.192H92.7703V31.184H94.5943V32.48ZM99.9543 35.552C99.9543 34.944 99.8263 34.4213 99.5703 33.984C99.325 33.536 98.9943 33.2 98.5783 32.976C98.173 32.7413 97.7356 32.624 97.2663 32.624C96.8076 32.624 96.3703 32.7413 95.9543 32.976C95.549 33.2107 95.2183 33.552 94.9623 34C94.717 34.448 94.5943 34.976 94.5943 35.584C94.5943 36.192 94.717 36.7253 94.9623 37.184C95.2183 37.632 95.549 37.9733 95.9543 38.208C96.3703 38.4427 96.8076 38.56 97.2663 38.56C97.7356 38.56 98.173 38.4427 98.5783 38.208C98.9943 37.9627 99.325 37.6107 99.5703 37.152C99.8263 36.6933 99.9543 36.16 99.9543 35.552ZM105.438 32.464C105.705 32.016 106.057 31.6693 106.494 31.424C106.942 31.168 107.47 31.04 108.078 31.04V32.928H107.614C106.899 32.928 106.355 33.1093 105.982 33.472C105.619 33.8347 105.438 34.464 105.438 35.36V40H103.614V31.184H105.438V32.464ZM113.579 40.144C112.747 40.144 111.995 39.9573 111.323 39.584C110.651 39.2 110.123 38.6667 109.739 37.984C109.355 37.2907 109.163 36.4907 109.163 35.584C109.163 34.688 109.36 33.8933 109.755 33.2C110.149 32.5067 110.688 31.9733 111.371 31.6C112.053 31.2267 112.816 31.04 113.659 31.04C114.501 31.04 115.264 31.2267 115.947 31.6C116.629 31.9733 117.168 32.5067 117.563 33.2C117.957 33.8933 118.155 34.688 118.155 35.584C118.155 36.48 117.952 37.2747 117.547 37.968C117.141 38.6613 116.587 39.2 115.883 39.584C115.189 39.9573 114.421 40.144 113.579 40.144ZM113.579 38.56C114.048 38.56 114.485 38.448 114.891 38.224C115.307 38 115.643 37.664 115.899 37.216C116.155 36.768 116.283 36.224 116.283 35.584C116.283 34.944 116.16 34.4053 115.915 33.968C115.669 33.52 115.344 33.184 114.939 32.96C114.533 32.736 114.096 32.624 113.627 32.624C113.157 32.624 112.72 32.736 112.315 32.96C111.92 33.184 111.605 33.52 111.371 33.968C111.136 34.4053 111.019 34.944 111.019 35.584C111.019 36.5333 111.259 37.2693 111.739 37.792C112.229 38.304 112.843 38.56 113.579 38.56ZM122.086 32.672V37.552C122.086 37.8827 122.16 38.1227 122.31 38.272C122.47 38.4107 122.736 38.48 123.11 38.48H124.23V40H122.79C121.968 40 121.339 39.808 120.902 39.424C120.464 39.04 120.246 38.416 120.246 37.552V32.672H119.206V31.184H120.246V28.992H122.086V31.184H124.23V32.672H122.086ZM129.735 40.144C128.903 40.144 128.151 39.9573 127.479 39.584C126.807 39.2 126.279 38.6667 125.895 37.984C125.511 37.2907 125.319 36.4907 125.319 35.584C125.319 34.688 125.516 33.8933 125.911 33.2C126.306 32.5067 126.844 31.9733 127.527 31.6C128.21 31.2267 128.972 31.04 129.815 31.04C130.658 31.04 131.42 31.2267 132.103 31.6C132.786 31.9733 133.324 32.5067 133.719 33.2C134.114 33.8933 134.311 34.688 134.311 35.584C134.311 36.48 134.108 37.2747 133.703 37.968C133.298 38.6613 132.743 39.2 132.039 39.584C131.346 39.9573 130.578 40.144 129.735 40.144ZM129.735 38.56C130.204 38.56 130.642 38.448 131.047 38.224C131.463 38 131.799 37.664 132.055 37.216C132.311 36.768 132.439 36.224 132.439 35.584C132.439 34.944 132.316 34.4053 132.071 33.968C131.826 33.52 131.5 33.184 131.095 32.96C130.69 32.736 130.252 32.624 129.783 32.624C129.314 32.624 128.876 32.736 128.471 32.96C128.076 33.184 127.762 33.52 127.527 33.968C127.292 34.4053 127.175 34.944 127.175 35.584C127.175 36.5333 127.415 37.2693 127.895 37.792C128.386 38.304 128.999 38.56 129.735 38.56ZM138.242 32.672V37.552C138.242 37.8827 138.317 38.1227 138.466 38.272C138.626 38.4107 138.893 38.48 139.266 38.48H140.386V40H138.946C138.125 40 137.495 39.808 137.058 39.424C136.621 39.04 136.402 38.416 136.402 37.552V32.672H135.362V31.184H136.402V28.992H138.242V31.184H140.386V32.672H138.242ZM150.003 31.184L144.595 44.144H142.707L144.499 39.856L141.027 31.184H143.059L145.539 37.904L148.115 31.184H150.003ZM153.204 32.48C153.513 32.0747 153.934 31.7333 154.468 31.456C155.001 31.1787 155.604 31.04 156.276 31.04C157.044 31.04 157.742 31.232 158.372 31.616C159.012 31.9893 159.513 32.5173 159.876 33.2C160.238 33.8827 160.42 34.6667 160.42 35.552C160.42 36.4373 160.238 37.232 159.876 37.936C159.513 38.6293 159.012 39.1733 158.372 39.568C157.742 39.952 157.044 40.144 156.276 40.144C155.604 40.144 155.006 40.0107 154.484 39.744C153.961 39.4667 153.534 39.1253 153.204 38.72V44.192H151.38V31.184H153.204V32.48ZM158.564 35.552C158.564 34.944 158.436 34.4213 158.18 33.984C157.934 33.536 157.604 33.2 157.188 32.976C156.782 32.7413 156.345 32.624 155.876 32.624C155.417 32.624 154.98 32.7413 154.564 32.976C154.158 33.2107 153.828 33.552 153.572 34C153.326 34.448 153.204 34.976 153.204 35.584C153.204 36.192 153.326 36.7253 153.572 37.184C153.828 37.632 154.158 37.9733 154.564 38.208C154.98 38.4427 155.417 38.56 155.876 38.56C156.345 38.56 156.782 38.4427 157.188 38.208C157.604 37.9627 157.934 37.6107 158.18 37.152C158.436 36.6933 158.564 36.16 158.564 35.552ZM170.303 35.376C170.303 35.7067 170.282 36.0053 170.239 36.272H163.503C163.557 36.976 163.818 37.5413 164.287 37.968C164.757 38.3947 165.333 38.608 166.015 38.608C166.997 38.608 167.69 38.1973 168.095 37.376H170.063C169.797 38.1867 169.311 38.8533 168.607 39.376C167.914 39.888 167.05 40.144 166.015 40.144C165.173 40.144 164.415 39.9573 163.743 39.584C163.082 39.2 162.559 38.6667 162.175 37.984C161.802 37.2907 161.615 36.4907 161.615 35.584C161.615 34.6773 161.797 33.8827 162.159 33.2C162.533 32.5067 163.05 31.9733 163.711 31.6C164.383 31.2267 165.151 31.04 166.015 31.04C166.847 31.04 167.589 31.2213 168.239 31.584C168.89 31.9467 169.397 32.4587 169.759 33.12C170.122 33.7707 170.303 34.5227 170.303 35.376ZM168.399 34.8C168.389 34.128 168.149 33.5893 167.679 33.184C167.21 32.7787 166.629 32.576 165.935 32.576C165.306 32.576 164.767 32.7787 164.319 33.184C163.871 33.5787 163.605 34.1173 163.519 34.8H168.399ZM184.191 31.184L178.783 44.144H176.895L178.687 39.856L175.215 31.184H177.247L179.727 37.904L182.303 31.184H184.191ZM189.391 40.144C188.559 40.144 187.807 39.9573 187.135 39.584C186.463 39.2 185.935 38.6667 185.551 37.984C185.167 37.2907 184.975 36.4907 184.975 35.584C184.975 34.688 185.173 33.8933 185.567 33.2C185.962 32.5067 186.501 31.9733 187.183 31.6C187.866 31.2267 188.629 31.04 189.471 31.04C190.314 31.04 191.077 31.2267 191.759 31.6C192.442 31.9733 192.981 32.5067 193.375 33.2C193.77 33.8933 193.967 34.688 193.967 35.584C193.967 36.48 193.765 37.2747 193.359 37.968C192.954 38.6613 192.399 39.2 191.695 39.584C191.002 39.9573 190.234 40.144 189.391 40.144ZM189.391 38.56C189.861 38.56 190.298 38.448 190.703 38.224C191.119 38 191.455 37.664 191.711 37.216C191.967 36.768 192.095 36.224 192.095 35.584C192.095 34.944 191.973 34.4053 191.727 33.968C191.482 33.52 191.157 33.184 190.751 32.96C190.346 32.736 189.909 32.624 189.439 32.624C188.97 32.624 188.533 32.736 188.127 32.96C187.733 33.184 187.418 33.52 187.183 33.968C186.949 34.4053 186.831 34.944 186.831 35.584C186.831 36.5333 187.071 37.2693 187.551 37.792C188.042 38.304 188.655 38.56 189.391 38.56ZM203.754 31.184V40H201.93V38.96C201.642 39.3227 201.264 39.6107 200.794 39.824C200.336 40.0267 199.845 40.128 199.322 40.128C198.629 40.128 198.005 39.984 197.45 39.696C196.906 39.408 196.474 38.9813 196.154 38.416C195.845 37.8507 195.69 37.168 195.69 36.368V31.184H197.498V36.096C197.498 36.8853 197.696 37.4933 198.09 37.92C198.485 38.336 199.024 38.544 199.706 38.544C200.389 38.544 200.928 38.336 201.322 37.92C201.728 37.4933 201.93 36.8853 201.93 36.096V31.184H203.754ZM207.985 32.464C208.252 32.016 208.604 31.6693 209.041 31.424C209.489 31.168 210.017 31.04 210.625 31.04V32.928H210.161C209.446 32.928 208.902 33.1093 208.529 33.472C208.166 33.8347 207.985 34.464 207.985 35.36V40H206.161V31.184H207.985V32.464ZM215.85 35.552C215.85 34.6667 216.031 33.8827 216.394 33.2C216.767 32.5173 217.268 31.9893 217.898 31.616C218.538 31.232 219.242 31.04 220.01 31.04C220.703 31.04 221.306 31.1787 221.818 31.456C222.34 31.7227 222.756 32.0587 223.066 32.464V31.184H224.906V40H223.066V38.688C222.756 39.104 222.335 39.4507 221.802 39.728C221.268 40.0053 220.66 40.144 219.978 40.144C219.22 40.144 218.527 39.952 217.898 39.568C217.268 39.1733 216.767 38.6293 216.394 37.936C216.031 37.232 215.85 36.4373 215.85 35.552ZM223.066 35.584C223.066 34.976 222.938 34.448 222.682 34C222.436 33.552 222.111 33.2107 221.706 32.976C221.3 32.7413 220.863 32.624 220.394 32.624C219.924 32.624 219.487 32.7413 219.082 32.976C218.676 33.2 218.346 33.536 218.09 33.984C217.844 34.4213 217.722 34.944 217.722 35.552C217.722 36.16 217.844 36.6933 218.09 37.152C218.346 37.6107 218.676 37.9627 219.082 38.208C219.498 38.4427 219.935 38.56 220.394 38.56C220.863 38.56 221.3 38.4427 221.706 38.208C222.111 37.9733 222.436 37.632 222.682 37.184C222.938 36.7253 223.066 36.192 223.066 35.584ZM229.126 32.48C229.435 32.0747 229.856 31.7333 230.39 31.456C230.923 31.1787 231.526 31.04 232.198 31.04C232.966 31.04 233.664 31.232 234.294 31.616C234.934 31.9893 235.435 32.5173 235.798 33.2C236.16 33.8827 236.342 34.6667 236.342 35.552C236.342 36.4373 236.16 37.232 235.798 37.936C235.435 38.6293 234.934 39.1733 234.294 39.568C233.664 39.952 232.966 40.144 232.198 40.144C231.526 40.144 230.928 40.0107 230.406 39.744C229.883 39.4667 229.456 39.1253 229.126 38.72V44.192H227.302V31.184H229.126V32.48ZM234.486 35.552C234.486 34.944 234.358 34.4213 234.102 33.984C233.856 33.536 233.526 33.2 233.11 32.976C232.704 32.7413 232.267 32.624 231.798 32.624C231.339 32.624 230.902 32.7413 230.486 32.976C230.08 33.2107 229.75 33.552 229.494 34C229.248 34.448 229.126 34.976 229.126 35.584C229.126 36.192 229.248 36.7253 229.494 37.184C229.75 37.632 230.08 37.9733 230.486 38.208C230.902 38.4427 231.339 38.56 231.798 38.56C232.267 38.56 232.704 38.4427 233.11 38.208C233.526 37.9627 233.856 37.6107 234.102 37.152C234.358 36.6933 234.486 36.16 234.486 35.552ZM239.969 32.48C240.279 32.0747 240.7 31.7333 241.233 31.456C241.767 31.1787 242.369 31.04 243.041 31.04C243.809 31.04 244.508 31.232 245.137 31.616C245.777 31.9893 246.279 32.5173 246.641 33.2C247.004 33.8827 247.185 34.6667 247.185 35.552C247.185 36.4373 247.004 37.232 246.641 37.936C246.279 38.6293 245.777 39.1733 245.137 39.568C244.508 39.952 243.809 40.144 243.041 40.144C242.369 40.144 241.772 40.0107 241.249 39.744C240.727 39.4667 240.3 39.1253 239.969 38.72V44.192H238.145V31.184H239.969V32.48ZM245.329 35.552C245.329 34.944 245.201 34.4213 244.945 33.984C244.7 33.536 244.369 33.2 243.953 32.976C243.548 32.7413 243.111 32.624 242.641 32.624C242.183 32.624 241.745 32.7413 241.329 32.976C240.924 33.2107 240.593 33.552 240.337 34C240.092 34.448 239.969 34.976 239.969 35.584C239.969 36.192 240.092 36.7253 240.337 37.184C240.593 37.632 240.924 37.9733 241.329 38.208C241.745 38.4427 242.183 38.56 242.641 38.56C243.111 38.56 243.548 38.4427 243.953 38.208C244.369 37.9627 244.7 37.6107 244.945 37.152C245.201 36.6933 245.329 36.16 245.329 35.552Z" fill="#2F281E"/>
<defs>
<filter id="filter0_d_5611_7" x="0" y="0" width="301" height="70.0959" filterUnits="userSpaceOnUse" color-interpolation-filters="sRGB">
<feFlood flood-opacity="0" result="BackgroundImageFix"/>
<feColorMatrix in="SourceAlpha" type="matrix" values="0 0 0 0 0 0 0 0 0 0 0 0 0 0 0 0 0 0 127 0" result="hardAlpha"/>
<feOffset dx="2" dy="2"/>
<feGaussianBlur stdDeviation="5"/>
<feColorMatrix type="matrix" values="0 0 0 0 0.0901961 0 0 0 0 0.227451 0 0 0 0 0.337255 0 0 0 0.15 0"/>
<feBlend mode="normal" in2="BackgroundImageFix" result="effect1_dropShadow_5611_7"/>
<feBlend mode="normal" in="SourceGraphic" in2="effect1_dropShadow_5611_7" result="shape"/>
</filter>
</defs>
</svg>
